<?xml version="1.0" standalone="no"?>
<!DOCTYPE svg PUBLIC "-//W3C//DTD SVG 20010904//EN"
 "http://www.w3.org/TR/2001/REC-SVG-20010904/DTD/svg10.dtd">
<svg version="1.0" xmlns="http://www.w3.org/2000/svg"
 width="512.000000pt" height="512.000000pt" viewBox="0 0 512.000000 512.000000"
 preserveAspectRatio="xMidYMid meet">
<metadata>
Created by potrace 1.11, written by Peter Selinger 2001-2013
</metadata>
<g transform="translate(0.000000,512.000000) scale(0.100000,-0.100000)"
fill="#000000" stroke="none">
<path d="M2410 5113 c-122 -39 -189 -122 -198 -245 -4 -58 -1 -75 21 -121 29
-58 67 -99 118 -126 l33 -18 -1 -174 c-1 -96 -2 -180 -2 -186 -1 -8 -15 -13
-36 -13 -64 0 -229 -29 -331 -59 -217 -62 -394 -153 -583 -298 l-84 -65 -158
159 -159 158 21 55 c33 86 30 191 -8 272 -94 199 -329 266 -513 147 -257 -166
-182 -564 119 -633 78 -17 186 -4 232 28 17 11 35 -4 180 -149 l161 -162 -65
-84 c-90 -118 -123 -170 -187 -299 -68 -135 -125 -307 -146 -435 -3 -20 -8
-47 -10 -59 -2 -11 -7 -50 -10 -86 -4 -36 -7 -66 -8 -67 -1 -1 -85 -3 -186 -3
l-184 -2 -28 40 c-41 59 -121 96 -192 89 -78 -7 -127 -37 -173 -103 -28 -43
-39 -135 -22 -183 36 -96 128 -157 224 -148 68 6 135 44 165 92 l22 35 189 0
189 0 1 -32 c2 -115 45 -311 97 -453 63 -171 143 -313 258 -463 36 -46 64 -86
62 -87 -66 -73 -314 -315 -322 -315 -7 0 -16 4 -22 8 -21 18 -88 33 -147 34
-221 3 -391 -203 -347 -419 56 -276 399 -375 598 -172 92 93 121 243 72 370
l-20 54 158 158 159 159 106 -81 c58 -45 108 -81 111 -81 3 0 29 -15 58 -34
179 -113 535 -226 716 -226 23 0 42 -3 43 -7 0 -5 1 -89 2 -187 l1 -179 -34
-18 c-84 -45 -131 -119 -138 -219 -17 -241 276 -370 448 -198 72 71 94 196 53
288 -23 52 -81 113 -124 130 l-29 12 0 189 0 189 43 0 c24 0 68 4 98 10 30 5
68 11 84 14 62 9 223 55 300 86 158 63 336 168 453 268 l54 45 160 -160 160
-160 -22 -61 c-18 -49 -21 -76 -18 -140 7 -136 79 -241 206 -300 80 -38 202
-38 282 -1 137 64 215 190 209 338 -5 116 -82 242 -179 291 -96 48 -199 56
-289 21 -36 -13 -59 -17 -70 -11 -9 5 -83 76 -166 159 l-149 151 30 32 c57 62
214 293 214 317 0 3 13 31 29 61 67 128 144 417 152 572 l3 47 232 3 232 3 11
-30 c35 -96 168 -163 284 -143 89 16 178 93 203 176 17 60 11 149 -14 198 -28
55 -105 121 -156 135 -124 35 -273 -28 -316 -131 l-13 -30 -231 2 -230 3 -3
35 c-22 323 -160 665 -373 929 l-52 64 160 160 160 160 36 -17 c19 -9 53 -19
76 -22 23 -3 48 -7 57 -8 69 -10 198 41 259 103 118 120 137 296 49 436 -39
63 -84 101 -155 134 -79 37 -201 37 -280 0 -174 -81 -254 -270 -189 -444 12
-31 19 -58 17 -60 -12 -14 -243 -247 -276 -278 l-40 -39 -75 61 c-188 152
-466 286 -682 327 -11 2 -30 6 -42 8 -11 3 -43 8 -70 12 -26 5 -51 9 -55 10
-5 1 -30 2 -58 3 l-50 1 0 189 0 189 29 11 c15 7 44 27 63 45 133 126 100 343
-65 428 -40 20 -142 32 -177 21z"/>
</g>
</svg>
