<?xml version="1.0" encoding="UTF-8"?>
<svg xmlns="http://www.w3.org/2000/svg" xmlns:xlink="http://www.w3.org/1999/xlink" width="20pt" height="23pt" viewBox="0 0 20 23" version="1.1">
<g id="surface1">
<path style=" stroke:none;fill-rule:nonzero;" d="M 0.160156 3.574219 C 0.160156 6.402344 0.183594 7.128906 0.261719 7.085938 C 0.3125 7.046875 0.78125 6.699219 1.300781 6.300781 L 2.246094 5.582031 L 2.21875 3.800781 L 2.195312 2.03125 L 10.007812 2.007812 L 17.820312 1.992188 L 17.796875 8.71875 L 17.773438 15.449219 L 17.546875 16.136719 C 16.734375 18.628906 14.695312 20.269531 11.75 20.832031 C 10.824219 21 9.128906 21 8.242188 20.824219 C 5.648438 20.300781 3.792969 18.992188 2.84375 17.003906 C 2.292969 15.871094 2.292969 15.871094 2.246094 12.113281 L 2.195312 8.703125 L 1.175781 8.679688 L 0.152344 8.65625 L 0.175781 12.128906 C 0.207031 15.578125 0.207031 15.609375 0.414062 16.335938 C 0.863281 17.925781 1.605469 19.183594 2.730469 20.253906 C 4.035156 21.488281 5.679688 22.300781 7.753906 22.738281 C 8.714844 22.945312 11.332031 22.945312 12.292969 22.738281 C 16.03125 21.957031 18.738281 19.632812 19.570312 16.515625 C 19.871094 15.394531 19.886719 14.84375 19.886719 7.34375 L 19.886719 0 L 0.160156 0 Z M 0.160156 3.574219 "/>
<path style=" stroke:none;fill-rule:nonzero;" d="M 4.671875 3.980469 C 3.976562 4.15625 3.402344 4.617188 3.097656 5.257812 C 2.9375 5.582031 2.652344 5.863281 1.476562 6.871094 L 0.0546875 8.089844 L 1.542969 8.113281 L 3.027344 8.125 L 3.050781 12.019531 C 3.074219 15.777344 3.082031 15.921875 3.242188 16.253906 C 3.976562 17.777344 6.117188 17.878906 7.003906 16.421875 C 7.179688 16.128906 7.226562 15.953125 7.253906 15.394531 C 7.277344 15.019531 7.308594 14.726562 7.339844 14.734375 C 8.507812 15.332031 9.296875 15.53125 10.253906 15.464844 C 11.007812 15.410156 11.703125 15.203125 12.324219 14.84375 L 12.753906 14.589844 L 12.804688 15.25 C 12.851562 16.085938 13.019531 16.476562 13.5 16.890625 C 14.066406 17.378906 14.769531 17.527344 15.511719 17.3125 C 15.957031 17.179688 16.558594 16.644531 16.765625 16.175781 C 16.933594 15.792969 16.941406 15.777344 16.917969 10.679688 C 16.894531 5.605469 16.894531 5.558594 16.726562 5.25 C 16.09375 4.132812 14.878906 3.886719 13.707031 4.636719 C 13.484375 4.785156 12.269531 5.910156 11.007812 7.152344 L 8.722656 9.40625 L 10.113281 10.742188 L 11.5 12.074219 L 12.78125 10.847656 L 12.78125 13.839844 L 12.507812 13.570312 C 12.355469 13.425781 11.109375 12.160156 9.746094 10.773438 L 7.253906 8.242188 L 7.300781 7.511719 C 7.324219 7.113281 7.371094 6.554688 7.394531 6.269531 C 7.476562 5.335938 7.042969 4.578125 6.199219 4.179688 C 5.742188 3.964844 5.070312 3.878906 4.671875 3.980469 Z M 5.734375 4.792969 C 6.332031 5.035156 6.652344 5.480469 6.652344 6.09375 C 6.660156 6.914062 6 7.550781 5.152344 7.542969 C 4.511719 7.527344 4.050781 7.230469 3.792969 6.65625 C 3.289062 5.480469 4.511719 4.308594 5.734375 4.792969 Z M 3.035156 7.0625 L 3.035156 7.359375 L 2.117188 7.359375 L 2.5 7.007812 C 2.707031 6.816406 2.914062 6.683594 2.957031 6.707031 C 3.003906 6.730469 3.035156 6.890625 3.035156 7.0625 Z M 6.238281 8.433594 C 5.023438 10.097656 5.039062 12.105469 6.292969 13.746094 L 6.574219 14.113281 L 6.515625 14.964844 C 6.484375 15.441406 6.414062 15.910156 6.351562 16.015625 C 5.855469 16.929688 4.519531 16.9375 4.015625 16.03125 L 3.832031 15.695312 L 3.832031 8.113281 L 4.175781 8.15625 C 4.359375 8.1875 4.785156 8.226562 5.113281 8.25 C 5.632812 8.28125 5.765625 8.265625 6.109375 8.105469 C 6.332031 8.003906 6.527344 7.925781 6.542969 7.941406 C 6.558594 7.957031 6.421875 8.179688 6.238281 8.433594 Z M 9.664062 11.761719 L 11.996094 14.128906 L 11.804688 14.273438 C 11.710938 14.34375 11.597656 14.414062 11.574219 14.414062 C 11.550781 14.414062 10.941406 13.847656 10.230469 13.148438 C 9.519531 12.449219 8.914062 11.882812 8.882812 11.882812 C 8.84375 11.882812 8.714844 11.984375 8.585938 12.113281 L 8.363281 12.335938 L 9.496094 13.476562 C 10.113281 14.105469 10.621094 14.644531 10.621094 14.675781 C 10.621094 14.875 10.207031 14.574219 9.21875 13.667969 L 8.058594 12.628906 L 7.828125 12.839844 C 7.691406 12.964844 7.585938 13.085938 7.585938 13.117188 C 7.585938 13.148438 7.9375 13.507812 8.371094 13.914062 C 9.191406 14.703125 9.183594 14.75 8.265625 14.34375 C 7.363281 13.9375 6.644531 13.148438 6.308594 12.183594 C 6.167969 11.769531 6.140625 11.5625 6.167969 10.878906 C 6.191406 10.121094 6.214844 10.035156 6.5 9.476562 L 6.804688 8.878906 L 7.070312 9.132812 C 7.210938 9.277344 8.378906 10.457031 9.664062 11.761719 Z M 9.664062 11.761719 "/>
</g>
</svg>
