<?xml version="1.0" encoding="UTF-8"?>
<svg xmlns="http://www.w3.org/2000/svg" xmlns:xlink="http://www.w3.org/1999/xlink" width="14pt" height="17pt" viewBox="0 0 14 17" version="1.1">
<g id="surface1">
<path d="M 0.113281 2.589844 C 0.113281 4.640625 0.128906 5.167969 0.183594 5.140625 C 0.222656 5.109375 0.554688 4.859375 0.921875 4.570312 L 1.59375 4.046875 L 1.574219 2.757812 L 1.554688 1.472656 L 7.089844 1.457031 L 12.621094 1.445312 L 12.609375 6.320312 L 12.59375 11.203125 L 12.425781 11.699219 C 11.851562 13.511719 10.410156 14.699219 8.324219 15.109375 C 7.667969 15.226562 6.464844 15.226562 5.839844 15.101562 C 4 14.71875 2.6875 13.773438 2.015625 12.332031 C 1.625 11.507812 1.625 11.507812 1.59375 8.785156 L 1.554688 6.3125 L 0.835938 6.296875 L 0.105469 6.277344 L 0.125 8.796875 C 0.148438 11.296875 0.148438 11.320312 0.292969 11.847656 C 0.613281 13 1.132812 13.914062 1.933594 14.6875 C 2.859375 15.582031 4.023438 16.171875 5.492188 16.488281 C 6.171875 16.636719 8.027344 16.636719 8.710938 16.488281 C 11.355469 15.921875 13.273438 14.238281 13.859375 11.976562 C 14.074219 11.164062 14.085938 10.765625 14.085938 5.324219 L 14.085938 0 L 0.113281 0 Z M 0.113281 2.589844 "/>
<path d="M 3.3125 2.890625 C 2.816406 3.011719 2.410156 3.347656 2.195312 3.8125 C 2.082031 4.046875 1.878906 4.25 1.046875 4.984375 L 0.0390625 5.867188 L 1.09375 5.882812 L 2.148438 5.890625 L 2.160156 8.714844 C 2.175781 11.441406 2.183594 11.542969 2.296875 11.789062 C 2.816406 12.890625 4.335938 12.960938 4.960938 11.90625 C 5.085938 11.699219 5.117188 11.566406 5.136719 11.164062 C 5.15625 10.890625 5.175781 10.679688 5.199219 10.683594 C 6.027344 11.117188 6.585938 11.261719 7.261719 11.210938 C 7.796875 11.175781 8.292969 11.023438 8.730469 10.765625 L 9.035156 10.578125 L 9.066406 11.054688 C 9.101562 11.667969 9.222656 11.945312 9.5625 12.25 C 9.964844 12.605469 10.460938 12.710938 10.984375 12.554688 C 11.304688 12.457031 11.726562 12.070312 11.875 11.726562 C 11.996094 11.453125 11.996094 11.441406 11.984375 7.742188 C 11.964844 4.0625 11.964844 4.03125 11.851562 3.808594 C 11.398438 2.996094 10.539062 2.820312 9.710938 3.359375 C 9.550781 3.46875 8.691406 4.285156 7.796875 5.1875 L 6.179688 6.820312 L 7.164062 7.789062 L 8.144531 8.753906 L 9.054688 7.867188 L 9.054688 10.039062 L 8.859375 9.839844 C 8.753906 9.734375 7.867188 8.816406 6.90625 7.8125 L 5.136719 5.976562 L 5.171875 5.449219 C 5.1875 5.15625 5.222656 4.75 5.234375 4.546875 C 5.296875 3.871094 4.992188 3.320312 4.390625 3.027344 C 4.066406 2.875 3.589844 2.8125 3.3125 2.890625 Z M 4.0625 3.476562 C 4.484375 3.652344 4.714844 3.972656 4.714844 4.417969 C 4.71875 5.015625 4.25 5.476562 3.648438 5.46875 C 3.195312 5.457031 2.867188 5.242188 2.6875 4.828125 C 2.332031 3.972656 3.195312 3.125 4.0625 3.476562 Z M 2.148438 5.125 L 2.148438 5.335938 L 1.5 5.335938 L 1.769531 5.078125 C 1.917969 4.945312 2.0625 4.84375 2.089844 4.863281 C 2.128906 4.882812 2.148438 4.996094 2.148438 5.125 Z M 4.414062 6.117188 C 3.558594 7.320312 3.570312 8.777344 4.457031 9.96875 L 4.660156 10.234375 L 4.613281 10.851562 C 4.59375 11.195312 4.546875 11.539062 4.5 11.613281 C 4.144531 12.273438 3.199219 12.28125 2.84375 11.625 L 2.714844 11.382812 L 2.714844 5.882812 L 2.960938 5.914062 C 3.089844 5.941406 3.386719 5.964844 3.625 5.984375 C 3.992188 6.003906 4.085938 5.992188 4.328125 5.875 C 4.484375 5.804688 4.621094 5.746094 4.632812 5.757812 C 4.644531 5.769531 4.546875 5.929688 4.414062 6.117188 Z M 6.847656 8.53125 L 8.496094 10.242188 L 8.363281 10.351562 C 8.296875 10.398438 8.21875 10.453125 8.199219 10.453125 C 8.179688 10.453125 7.75 10.039062 7.246094 9.535156 C 6.742188 9.027344 6.316406 8.617188 6.292969 8.617188 C 6.261719 8.617188 6.171875 8.691406 6.082031 8.785156 L 5.921875 8.945312 L 6.726562 9.773438 C 7.164062 10.226562 7.523438 10.617188 7.523438 10.640625 C 7.523438 10.789062 7.230469 10.570312 6.527344 9.910156 L 5.707031 9.15625 L 5.542969 9.308594 C 5.449219 9.398438 5.375 9.488281 5.375 9.511719 C 5.375 9.535156 5.621094 9.796875 5.929688 10.089844 C 6.511719 10.660156 6.503906 10.695312 5.855469 10.398438 C 5.214844 10.105469 4.707031 9.535156 4.46875 8.832031 C 4.367188 8.535156 4.347656 8.382812 4.367188 7.890625 C 4.386719 7.335938 4.402344 7.277344 4.605469 6.875 L 4.820312 6.441406 L 5.007812 6.625 C 5.105469 6.726562 5.933594 7.582031 6.847656 8.53125 Z M 6.847656 8.53125 "/>
</g>
</svg>
