<?xml version="1.0" standalone="no"?>
<!DOCTYPE svg PUBLIC "-//W3C//DTD SVG 20010904//EN"
 "http://www.w3.org/TR/2001/REC-SVG-20010904/DTD/svg10.dtd">
<svg version="1.0" xmlns="http://www.w3.org/2000/svg"
 width="512.000000pt" height="512.000000pt" viewBox="0 0 512.000000 512.000000"
 preserveAspectRatio="xMidYMid meet">
<metadata>
Created by potrace 1.11, written by Peter Selinger 2001-2013
</metadata>
<g transform="translate(0.000000,512.000000) scale(0.100000,-0.100000)"
fill="#000000" stroke="none">
<path d="M2495 5112 c-22 -4 -82 -47 -103 -72 -28 -34 -45 -77 -49 -127 -7
-71 31 -152 88 -190 l39 -26 0 -188 0 -189 -37 -1 c-21 0 -47 -2 -58 -4 -11
-2 -40 -7 -65 -10 -86 -12 -289 -63 -304 -76 -6 -5 -16 -9 -24 -9 -23 0 -211
-90 -297 -143 -43 -27 -117 -78 -163 -114 l-84 -66 -161 161 -161 161 17 38
c77 171 -3 380 -176 458 -233 105 -495 -64 -494 -321 0 -151 96 -283 242 -333
58 -20 170 -16 235 8 l55 21 158 -159 159 -158 -65 -85 c-82 -105 -159 -229
-202 -322 -62 -137 -118 -311 -131 -411 -3 -22 -9 -53 -13 -70 -4 -16 -9 -55
-10 -85 -2 -30 -4 -57 -6 -60 -2 -4 -334 -5 -368 -1 -4 1 -12 12 -17 25 -16
44 -79 103 -132 126 -65 28 -161 24 -224 -8 -123 -63 -174 -213 -117 -343 74
-166 296 -205 425 -75 20 21 42 51 48 67 l12 29 189 0 189 0 0 -42 c0 -57 23
-193 50 -298 56 -219 170 -443 320 -628 28 -35 50 -66 48 -68 -2 -2 -73 -74
-159 -161 l-157 -158 -57 23 c-126 51 -285 15 -376 -84 -71 -77 -99 -157 -95
-263 8 -197 174 -342 375 -329 233 16 383 252 300 472 l-21 59 161 160 160
161 33 -30 c100 -94 328 -230 483 -289 145 -54 355 -102 468 -106 l47 -2 0
-232 0 -233 -27 -11 c-98 -41 -159 -162 -141 -276 33 -220 307 -299 455 -131
71 81 85 187 38 291 -16 36 -78 97 -120 118 l-30 15 3 230 3 229 55 2 c31 0
59 3 62 5 4 2 27 7 52 10 25 3 56 8 70 11 14 3 38 8 53 10 16 3 76 21 135 41
194 63 383 166 541 294 l64 52 159 -160 160 -161 -22 -58 c-64 -170 12 -359
180 -441 45 -22 70 -27 140 -29 79 -2 91 1 156 32 82 40 134 92 173 174 22 47
26 70 26 141 0 76 -4 93 -32 151 -82 166 -268 242 -438 178 l-56 -21 -67 64
c-37 34 -109 106 -160 159 l-94 97 52 63 c111 138 203 297 265 458 37 97 79
253 89 331 4 25 8 54 10 65 3 11 5 41 5 68 l1 47 189 0 189 0 12 -30 c33 -80
135 -142 235 -143 142 -1 254 106 261 247 7 148 -94 262 -243 274 -104 8 -186
-34 -245 -127 l-28 -45 -185 -1 -185 0 0 36 c0 54 -26 214 -48 299 -18 66 -29
100 -74 225 -37 100 -162 307 -255 420 l-46 57 159 159 159 159 55 -21 c70
-27 175 -29 245 -4 234 82 310 383 143 566 -138 152 -383 153 -518 2 -58 -66
-79 -112 -93 -210 -6 -38 17 -159 34 -179 6 -7 9 -18 7 -24 -3 -9 -274 -286
-305 -312 -9 -7 -35 8 -95 55 -145 112 -283 191 -454 256 -93 35 -254 77 -339
87 -33 5 -63 9 -67 10 -5 1 -26 2 -48 3 l-40 1 0 189 0 188 39 26 c50 33 91
113 91 176 -1 81 -50 159 -123 198 -31 16 -121 25 -162 15z"/>
</g>
</svg>
